<?xml version="1.0" encoding="utf-8"?>
<svg id="master-artboard" xmlns="http://www.w3.org/2000/svg" viewBox="0 0 188.6807403564453 38.36408996582031" width="188.6807403564453px" height="38.36408996582031px"><rect id="ee-background" x="0" y="0" width="188.6807403564453" height="38.36408996582031" style="fill: white; fill-opacity: 0; pointer-events: none;"/><defs><style id="ee-google-fonts">@import url(https://fonts.googleapis.com/css?family=Convergence:400);</style></defs><path d="M 110.62897491455078 111.2397689819336 C 106.98897552490234 111.2397689819336 103.97230529785156 109.9131088256836 101.57897186279297 107.25977325439453 C 99.18563842773438 104.60643768310547 97.98897552490234 100.73643493652344 97.98897552490234 95.64977264404297 C 97.98897552490234 90.5631103515625 99.20897674560547 86.55644226074219 101.64897155761719 83.62977600097656 C 104.08230590820312 80.70310974121094 107.73564147949219 79.23977661132812 112.60897827148438 79.23977661132812 C 116.27564239501953 79.23977661132812 119.2989730834961 80.55310821533203 121.67897033691406 83.17977142333984 C 124.05897521972656 85.79977416992188 125.24897766113281 89.65644073486328 125.24897766113281 94.74977111816406 C 125.24897766113281 99.83644104003906 124.03230285644531 103.85643768310547 121.5989761352539 106.80976867675781 C 119.15897369384766 109.76310729980469 115.50230407714844 111.2397689819336 110.62897491455078 111.2397689819336 M 111.448974609375 107.10977172851562 C 114.68897247314453 107.10977172851562 116.95896911621094 106.05644226074219 118.25897216796875 103.94977569580078 C 119.56564331054688 101.84310913085938 120.2189712524414 98.75310516357422 120.2189712524414 94.67977142333984 C 120.2189712524414 90.60643768310547 119.48230743408203 87.70310974121094 118.00897216796875 85.96977233886719 C 116.52897644042969 84.23643493652344 114.47230529785156 83.3697738647461 111.83897399902344 83.3697738647461 C 108.53897094726562 83.3697738647461 106.24564361572266 84.50310516357422 104.95897674560547 86.769775390625 C 103.77897644042969 88.86310577392578 103.18897247314453 91.89310455322266 103.18897247314453 95.85977172851562 C 103.18897247314453 99.8331069946289 103.92230987548828 102.69976806640625 105.38897705078125 104.45977020263672 C 106.8489761352539 106.2264404296875 108.86897277832031 107.10977172851562 111.448974609375 107.10977172851562 ZM 149.88894653320312 87.45977020263672 L 149.88894653320312 105.33977508544922 C 149.88894653320312 106.37310791015625 150.00894165039062 107.0331039428711 150.2489471435547 107.31977081298828 C 150.49562072753906 107.60643768310547 151.0489501953125 107.74977111816406 151.90895080566406 107.74977111816406 L 152.07894897460938 110.45977020263672 C 151.36561584472656 110.71977233886719 150.60562133789062 110.84976959228516 149.7989501953125 110.84976959228516 C 148.05227661132812 110.84976959228516 146.82228088378906 110.15977478027344 146.10894775390625 108.77976989746094 C 144.24227905273438 110.41976928710938 141.90560913085938 111.2397689819336 139.0989532470703 111.2397689819336 C 133.8789520263672 111.2397689819336 131.26895141601562 108.42977142333984 131.26895141601562 102.80976867675781 L 131.26895141601562 88.05976867675781 L 135.90895080566406 87.45977020263672 L 135.90895080566406 101.94976806640625 C 135.90895080566406 105.72977447509766 137.41561889648438 107.6197738647461 140.428955078125 107.6197738647461 C 142.49562072753906 107.6197738647461 144.10227966308594 107.019775390625 145.2489471435547 105.81977081298828 L 145.2489471435547 88.05976867675781 L 149.88894653320312 87.45977020263672 ZM 158.7012939453125 95.06977081298828 C 158.7012939453125 92.48977661132812 158.4446258544922 90.16644287109375 157.93128967285156 88.09976959228516 L 161.54129028320312 87.62977600097656 L 162.61129760742188 90.41976928710938 C 164.41795349121094 88.29977416992188 166.45462036132812 87.23977661132812 168.72128295898438 87.23977661132812 C 170.2412872314453 87.23977661132812 171.42462158203125 87.59976959228516 172.2712860107422 88.31977081298828 C 173.11795043945312 89.0331039428711 173.54129028320312 90.04977416992188 173.54129028320312 91.3697738647461 C 173.54129028320312 92.68977355957031 173.3246307373047 93.84976959228516 172.89129638671875 94.84976959228516 L 169.1912841796875 94.37977600097656 C 169.1912841796875 93.08644104003906 169.0712890625 92.17643737792969 168.831298828125 91.64977264404297 C 168.58462524414062 91.11643981933594 168.081298828125 90.84976959228516 167.3212890625 90.84976959228516 C 166.56129455566406 90.84976959228516 165.81796264648438 91.15310668945312 165.09129333496094 91.75977325439453 C 164.3579559326172 92.35977172851562 163.77462768554688 93.0331039428711 163.34129333496094 93.77976989746094 L 163.34129333496094 110.71977233886719 L 158.7012939453125 110.71977233886719 L 158.7012939453125 95.06977081298828 ZM 183.25308227539062 110.71977233886719 L 183.25308227539062 83.62977600097656 L 174.09307861328125 83.62977600097656 L 174.09307861328125 79.75977325439453 L 197.66307067871094 79.75977325439453 L 197.05307006835938 83.62977600097656 L 188.153076171875 83.62977600097656 L 188.153076171875 110.71977233886719 L 183.25308227539062 110.71977233886719 ZM 214.94387817382812 87.45977020263672 L 214.94387817382812 105.33977508544922 C 214.94387817382812 106.37310791015625 215.06387329101562 107.0331039428711 215.3038787841797 107.31977081298828 C 215.55055236816406 107.60643768310547 216.1038818359375 107.74977111816406 216.96388244628906 107.74977111816406 L 217.13388061523438 110.45977020263672 C 216.42054748535156 110.71977233886719 215.66055297851562 110.84976959228516 214.8538818359375 110.84976959228516 C 213.10720825195312 110.84976959228516 211.87721252441406 110.15977478027344 211.16387939453125 108.77976989746094 C 209.29721069335938 110.41976928710938 206.96054077148438 111.2397689819336 204.1538848876953 111.2397689819336 C 198.9338836669922 111.2397689819336 196.32388305664062 108.42977142333984 196.32388305664062 102.80976867675781 L 196.32388305664062 88.05976867675781 L 200.96388244628906 87.45977020263672 L 200.96388244628906 101.94976806640625 C 200.96388244628906 105.72977447509766 202.47055053710938 107.6197738647461 205.48388671875 107.6197738647461 C 207.55055236816406 107.6197738647461 209.15721130371094 107.019775390625 210.3038787841797 105.81977081298828 L 210.3038787841797 88.05976867675781 L 214.94387817382812 87.45977020263672 ZM 225.17620849609375 83.15977478027344 L 228.82620239257812 82.67977142333984 L 228.82620239257812 88.56977081298828 L 235.4962158203125 88.56977081298828 L 234.97621154785156 91.66976928710938 L 228.82620239257812 91.66976928710938 L 228.82620239257812 103.18977355957031 C 228.82620239257812 104.74310302734375 229.0628662109375 105.8697738647461 229.5362091064453 106.56977081298828 C 230.00953674316406 107.269775390625 230.74954223632812 107.6197738647461 231.75621032714844 107.6197738647461 C 232.75621032714844 107.6197738647461 233.88954162597656 107.50643920898438 235.1562042236328 107.27976989746094 L 235.70620727539062 110.41976928710938 C 233.93287658691406 110.96643829345703 232.21287536621094 111.2397689819336 230.54620361328125 111.2397689819336 C 228.22621154785156 111.2397689819336 226.58621215820312 110.62310791015625 225.62620544433594 109.3897705078125 C 224.6662139892578 108.15644073486328 224.1862030029297 106.40644073486328 224.1862030029297 104.1397705078125 L 224.1862030029297 91.66976928710938 L 220.96620178222656 91.66976928710938 L 220.96620178222656 88.99977111816406 L 224.1862030029297 88.56977081298828 L 225.17620849609375 83.15977478027344 ZM 250.7591094970703 87.23977661132812 C 253.56578063964844 87.23977661132812 255.88909912109375 88.22310638427734 257.7290954589844 90.18977355957031 C 259.56243896484375 92.14977264404297 260.4790954589844 95.03643798828125 260.4790954589844 98.84976959228516 C 260.4790954589844 102.6631088256836 259.53912353515625 105.67977142333984 257.65911865234375 107.89977264404297 C 255.7857666015625 110.1264419555664 252.96910095214844 111.2397689819336 249.2091064453125 111.2397689819336 C 246.40243530273438 111.2397689819336 244.0824432373047 110.24310302734375 242.24911499023438 108.24977111816406 C 240.4091033935547 106.25643920898438 239.48910522460938 103.35310363769531 239.48910522460938 99.5397720336914 C 239.48910522460938 95.7264404296875 240.42910766601562 92.72310638427734 242.30911254882812 90.52976989746094 C 244.18910217285156 88.33644104003906 247.00576782226562 87.23977661132812 250.7591094970703 87.23977661132812 M 244.39910888671875 99.55976867675781 C 244.39910888671875 99.55976867675781 244.39910888671875 100.27976989746094 244.39910888671875 101.71977233886719 C 244.39910888671875 103.15977478027344 244.8791046142578 104.50310516357422 245.839111328125 105.74977111816406 C 246.79910278320312 106.9964370727539 248.23910522460938 107.6197738647461 250.1591033935547 107.6197738647461 C 252.0791015625 107.6197738647461 253.46243286132812 106.8764419555664 254.30911254882812 105.3897705078125 C 255.15577697753906 103.89643859863281 255.5791015625 101.70977020263672 255.5791015625 98.82977294921875 C 255.5791015625 95.94976806640625 255.09910583496094 93.89977264404297 254.13909912109375 92.67977142333984 C 253.17910766601562 91.45977020263672 251.85244750976562 90.84976959228516 250.1591033935547 90.84976959228516 C 248.00576782226562 90.84976959228516 246.50576782226562 91.5831069946289 245.6591033935547 93.04977416992188 C 244.81910705566406 94.50977325439453 244.39910888671875 96.67977142333984 244.39910888671875 99.55976867675781 ZM 266.8395080566406 95.06977081298828 C 266.8395080566406 92.48977661132812 266.5828552246094 90.16644287109375 266.06951904296875 88.09976959228516 L 269.6795349121094 87.62977600097656 L 270.74951171875 90.41976928710938 C 272.5561828613281 88.29977416992188 274.5928649902344 87.23977661132812 276.8595275878906 87.23977661132812 C 278.3795166015625 87.23977661132812 279.5628662109375 87.59976959228516 280.4095153808594 88.31977081298828 C 281.2561950683594 89.0331039428711 281.67950439453125 90.04977416992188 281.67950439453125 91.3697738647461 C 281.67950439453125 92.68977355957031 281.4628601074219 93.84976959228516 281.0295104980469 94.84976959228516 L 277.32952880859375 94.37977600097656 C 277.32952880859375 93.08644104003906 277.20953369140625 92.17643737792969 276.9695129394531 91.64977264404297 C 276.72283935546875 91.11643981933594 276.2195129394531 90.84976959228516 275.45953369140625 90.84976959228516 C 274.69952392578125 90.84976959228516 273.9561767578125 91.15310668945312 273.2295227050781 91.75977325439453 C 272.4961853027344 92.35977172851562 271.912841796875 93.0331039428711 271.4795227050781 93.77976989746094 L 271.4795227050781 110.71977233886719 L 266.8395080566406 110.71977233886719 L 266.8395080566406 95.06977081298828 Z" transform="matrix(1.0322173833847046, 0, 0, 1.0322173833847046, -101.31309509277344, -79.93877410888672)" style="fill: rgb(51, 72, 130); white-space: pre; color: rgb(51, 72, 130);"/><path d="M 123.90501403808594 86.86016082763672" style="fill: rgb(51, 51, 51); fill-opacity: 1; stroke: rgb(0, 0, 0); stroke-opacity: 1; stroke-width: 0; paint-order: fill;" transform="matrix(0.9903812408447265, 0, 0, 0.9903812408447265, -93.42011517220453, -77.01023736629034)"/><g transform="matrix(0.2124935221686893, -0.0013356928421259988, 0.0013356928421259988, 0.2124935221686893, -163.18347480965744, -122.58553732088195)"><g transform="matrix(1, 0, 0, 1, 0, 0)"><g transform="matrix(1, 0, 0, 1, 1.1368683772161603e-13, 0)">
		<g>
			<path class="st20" d="M976.6,636.1l-45.4-2.4l-8,6.3c0,0,41.9,8,53.4,8c0,0,0,0,0,0L976.6,636.1L976.6,636.1z" style="fill: rgb(255, 196, 32);"/>
			<path class="st22" d="M1022,633.7l-45.4,2.4v11.9c11.5,0,53.4-8,53.4-8L1022,633.7z" style="fill: rgb(252, 160, 13);"/>
		</g>
		<path class="st21" d="M976.5,555.3c0,0-4.9,26.9-16,32.5c0.3,0.2,0.7,0.3,1,0.5c0,0,0,0,0,0c0,0,0,0,0,0c2.5,1.4,8.9,5.5,11.5,12&#10;&#9;&#9;&#9;c0.6,2,1.3,5.6,0.7,9.3c-0.4,1.8-1.2,3.7-2.3,5.8c-1.3,1.7-3.1,3.1-5.6,4.1c-11.9,4.4-17.6-5-17.6-5c0,0,0,0,0,0.1&#10;&#9;&#9;&#9;c-4.2-7.1-0.6-17.9,1-21.8c0,0,0,0,0-0.1c0,0,0,0,0,0c0.2-0.4,0.4-0.9,0.6-1.3c-14.3,6.3-29.8-0.2-29.8-0.2l18.8,38.6l37.9,2.5&#10;&#9;&#9;&#9;L976.5,555.3C976.5,555.3,976.5,555.3,976.5,555.3z" style="fill: rgb(254, 241, 66);"/>
		<path class="st20" d="M976.6,555.3c0,0,4.9,26.9,16,32.5c-0.3,0.2-0.7,0.3-1,0.5c0,0,0,0,0,0c0,0,0,0,0,0&#10;&#9;&#9;&#9;c-2.5,1.4-8.9,5.5-11.5,12c-0.6,2-1.3,5.6-0.7,9.3c0.4,1.8,1.2,3.7,2.3,5.8c1.3,1.7,3.1,3.1,5.6,4.1c11.9,4.4,17.6-5,17.6-5&#10;&#9;&#9;&#9;c0,0,0,0,0,0.1c4.2-7.1,0.6-17.9-1-21.8c0,0,0,0,0-0.1c0,0,0,0,0,0c-0.2-0.4-0.4-0.9-0.6-1.3c14.3,6.3,29.8-0.2,29.8-0.2&#10;&#9;&#9;&#9;l-18.8,38.6l-37.9,2.5L976.6,555.3C976.6,555.3,976.6,555.3,976.6,555.3z" style="fill: rgb(255, 196, 32);"/>
	</g></g></g><path d="M 173.77308654785156 34.142478942871094" style="fill: rgb(51, 72, 130); fill-opacity: 1; stroke: rgb(0, 0, 0); stroke-opacity: 1; stroke-width: 0; paint-order: fill;" transform="matrix(1.032217264175415, 0, 0, 1.032217264175415, -3.511173903283577, -0.5206704888060187)"/></svg>