<svg width="800" height="600" xmlns="http://www.w3.org/2000/svg" viewBox="0 0 283 64">
 <g>
  <title>Layer 1</title>
  <text strokeWidth="0" transform="matrix(1.31681 0 0 1.41695 -97.7225 -104.499)" stroke="#000" fontStyle="normal" fontWeight="normal" xmlSpace="preserve" textAnchor="start" fontFamily="'Montserrat ExtraBold'" fontSize="105" id="svg_1" y="311.76399" x="81.5268" fill="#1e56a0">Tutorcept</text>
  <path stroke="#000" id="svg_2" d="m638.45946,213.45155l-16.64211,-8.91342c-4.19886,-2.24668 -9.73158,-1.16535 -12.37729,2.41341l-6.5596,8.89679l31.83706,17.03953l6.56477,-8.89266c2.63567,-3.58302 1.37776,-8.30197 -2.82283,-10.54364l0,0zm-92.23315,79.26101l31.83879,17.03935l51.89195,-70.39347l-31.85395,-17.0438l-51.8768,70.39791l0.00001,0zm-4.86337,21.64913l-0.7032,16.00477l16.61658,-7.4895l15.44152,-6.94757l-30.7159,-16.4488l-0.63899,14.88111l0,0l-0.00001,0z" strokeWidth="0" fill="#1e56a0"/>
 </g>

</svg>