<svg width="800" height="600" xmlns="http://www.w3.org/2000/svg">
 <g>
  <title>Layer 1</title>
  <text stroke-width="0" transform="matrix(1.31681 0 0 1.56845 -97.7225 -156.04)" stroke="#000" font-style="normal" font-weight="normal" xml:space="preserve" text-anchor="start" font-family="'Montserrat SemiBold'" font-size="36" id="svg_1" y="312.40156" x="309.35" fill="#1e56a0">Tutorcept</text>
  <path stroke="#000" id="svg_2" d="m526.17732,295.38404l-5.87368,-2.66701c-1.48195,-0.67223 -3.43468,-0.34869 -4.36846,0.72212l-2.31515,2.66203l11.23661,5.09844l2.31698,-2.6608c0.93024,-1.07209 0.48627,-2.48405 -0.99629,-3.15479l0,0zm-32.55288,23.71589l11.23722,5.09839l18.31481,-21.06261l-11.24257,-5.09972l-18.30946,21.06394l0,0zm-1.71648,6.47769l-0.24819,4.78883l5.86467,-2.24095l5.44995,-2.0788l-10.84091,-4.92169l-0.22553,4.45262l0,0l0,0z" stroke-width="0" fill="#1e56a0"/>
 </g>

</svg>